<svg width="512" height="512" viewBox="0 0 512 512" fill="none" xmlns="http://www.w3.org/2000/svg">
<path fill-rule="evenodd" clip-rule="evenodd" d="M41.3501 363.74C41.1921 365.625 40.2944 367.371 38.8532 368.596C37.412 369.82 35.5444 370.425 33.6588 370.277C31.7731 370.129 30.0227 369.241 28.7901 367.806C27.5575 366.372 26.9429 364.507 27.0807 362.621C37.9607 225.778 145.95 108.622 287.601 108.622C358.21 108.622 422.351 137.812 470.265 187.739C471.545 189.111 472.234 190.931 472.184 192.806C472.134 194.682 471.347 196.462 469.995 197.763C468.643 199.064 466.834 199.78 464.958 199.758C463.082 199.736 461.289 198.977 459.969 197.644C414.628 150.399 354.435 122.948 287.602 122.948C153.532 122.948 51.8123 233.971 41.3501 363.74ZM440.742 250.128L396.443 287.502C412.62 310.584 423.754 337.199 429.092 365.258H484.941C480.983 321.765 465.044 282.085 440.742 250.128ZM318.288 223.62C337.933 231.912 355.885 243.797 371.443 258.519L427.589 234.463C352.758 153.671 232.259 150.485 153.936 227.958C139.966 241.777 127.829 257.725 117.962 275.33C150.981 235.417 199.077 210.277 252.563 210.277C275.709 210.277 297.879 215.006 318.288 223.62ZM231.692 305.051C206.762 320.432 198.989 353.227 214.37 378.157C229.752 403.088 262.546 410.86 287.478 395.479C305.223 384.531 314.747 364.375 312.325 343.962L312.334 343.961C312.195 342.788 312.349 341.599 312.782 340.501C313.215 339.402 313.914 338.428 314.816 337.666L409.557 257.737L295.774 306.488C294.672 306.99 293.459 307.203 292.252 307.108C291.044 307.012 289.88 306.611 288.87 305.942C271.736 294.616 249.441 294.1 231.692 305.051ZM285.94 333.178C281.554 326.378 274.706 321.54 266.831 319.677C249.997 315.69 232.985 326.184 228.997 343.02C225.01 359.852 235.504 376.866 252.338 380.853C269.203 384.849 286.176 374.384 290.173 357.511C292.04 349.643 290.791 341.357 286.687 334.388C286.479 333.961 286.228 333.555 285.94 333.178Z" fill="#363F3E"/>
</svg>
