<svg width="512" height="512" viewBox="0 0 512 512" fill="none" xmlns="http://www.w3.org/2000/svg">
<path d="M193.451 68.864C164.129 65.613 134.538 65.613 105.216 68.864C96.0649 69.8828 87.5259 73.9614 80.9823 80.4392C74.4387 86.917 70.2739 95.4144 69.1627 104.555C65.6827 134.306 65.6827 164.361 69.1627 194.112C70.2739 203.252 74.4387 211.75 80.9823 218.227C87.5259 224.705 96.0649 228.784 105.216 229.803C134.293 233.045 164.373 233.045 193.451 229.803C202.602 228.784 211.141 224.705 217.684 218.227C224.228 211.75 228.393 203.252 229.504 194.112C232.984 164.361 232.984 134.306 229.504 104.555C228.393 95.4144 224.228 86.917 217.684 80.4392C211.141 73.9614 202.602 69.8828 193.451 68.864ZM193.451 282.197C164.129 278.946 134.538 278.946 105.216 282.197C96.0649 283.216 87.5259 287.295 80.9823 293.773C74.4387 300.25 70.2739 308.748 69.1627 317.888C65.6827 347.639 65.6827 377.694 69.1627 407.445C70.2739 416.586 74.4387 425.083 80.9823 431.561C87.5259 438.039 96.0649 442.117 105.216 443.136C134.293 446.379 164.373 446.379 193.451 443.136C202.602 442.117 211.141 438.039 217.684 431.561C224.228 425.083 228.393 416.586 229.504 407.445C232.984 377.694 232.984 347.639 229.504 317.888C228.393 308.748 224.228 300.25 217.684 293.773C211.141 287.295 202.602 283.216 193.451 282.197ZM406.784 68.864C377.462 65.613 347.871 65.613 318.549 68.864C309.398 69.8828 300.859 73.9614 294.316 80.4392C287.772 86.917 283.607 95.4144 282.496 104.555C279.016 134.306 279.016 164.361 282.496 194.112C283.607 203.252 287.772 211.75 294.316 218.227C300.859 224.705 309.398 228.784 318.549 229.803C347.648 233.045 377.707 233.045 406.784 229.803C415.935 228.784 424.474 224.705 431.018 218.227C437.561 211.75 441.726 203.252 442.837 194.112C446.318 164.361 446.318 134.306 442.837 104.555C441.726 95.4144 437.561 86.917 431.018 80.4392C424.474 73.9614 415.935 69.8828 406.784 68.864ZM406.784 282.197C377.462 278.946 347.871 278.946 318.549 282.197C309.398 283.216 300.859 287.295 294.316 293.773C287.772 300.25 283.607 308.748 282.496 317.888C279.016 347.639 279.016 377.694 282.496 407.445C283.607 416.586 287.772 425.083 294.316 431.561C300.859 438.039 309.398 442.117 318.549 443.136C347.648 446.379 377.707 446.379 406.784 443.136C415.935 442.117 424.474 438.039 431.018 431.561C437.561 425.083 441.726 416.586 442.837 407.445C446.318 377.694 446.318 347.639 442.837 317.888C441.726 308.748 437.561 300.25 431.018 293.773C424.474 287.295 415.935 283.216 406.784 282.197Z" fill="#363F3E"/>
</svg>
