<svg width="512" height="512" viewBox="0 0 512 512" fill="none" xmlns="http://www.w3.org/2000/svg">
<path d="M270.832 83.024L465.344 196.048C467.071 197.049 468.505 198.487 469.502 200.216C470.498 201.946 471.023 203.908 471.023 205.904C471.023 207.9 470.498 209.862 469.502 211.592C468.505 213.321 467.071 214.759 465.344 215.76L270.832 328.784C264.965 332.196 258.299 333.993 251.512 333.993C244.725 333.993 238.059 332.196 232.192 328.784L37.68 215.76C35.9528 214.759 34.519 213.321 33.5222 211.592C32.5255 209.862 32.0009 207.9 32.0009 205.904C32.0009 203.908 32.5255 201.946 33.5222 200.216C34.519 198.487 35.9528 197.049 37.68 196.048L232.192 83.024C238.062 79.62 244.727 77.8273 251.512 77.8273C258.297 77.8273 264.962 79.62 270.832 83.024Z" fill="#363F3E"/>
<path d="M270.832 83.024L465.344 196.048C467.071 197.049 468.505 198.487 469.502 200.216C470.498 201.946 471.023 203.908 471.023 205.904C471.023 207.9 470.498 209.862 469.502 211.592C468.505 213.321 467.071 214.759 465.344 215.76L270.832 328.784C264.965 332.196 258.299 333.993 251.512 333.993C244.725 333.993 238.059 332.196 232.192 328.784L37.68 215.76C35.9528 214.759 34.519 213.321 33.5222 211.592C32.5255 209.862 32.0009 207.9 32.0009 205.904C32.0009 203.908 32.5255 201.946 33.5222 200.216C34.519 198.487 35.9528 197.049 37.68 196.048L232.192 83.024C238.062 79.62 244.727 77.8273 251.512 77.8273C258.297 77.8273 264.962 79.62 270.832 83.024Z" fill="#363F3E"/>
<path d="M465.28 215.84L399.2 254.24L270.88 328.8C258.88 335.68 244.16 335.68 232.16 328.8L103.84 254.24L37.6 215.84C35.879 214.818 34.4534 213.367 33.4632 211.627C32.473 209.888 31.9524 207.921 31.9524 205.92C31.9524 203.919 32.473 201.952 33.4632 200.213C34.4534 198.473 35.879 197.022 37.6 196L232.16 83.04C244.16 76.16 258.88 76.16 270.88 83.04L465.28 196C472.96 200.48 472.96 211.36 465.28 215.84Z" fill="#363F3E"/>
<path d="M282.944 349.552C273.296 355.072 262.48 357.968 251.52 357.968C240.56 357.968 229.744 355.072 220.224 349.632L103.84 282V342.08C103.84 355.52 110.88 367.84 122.56 374.56L203.68 421.44C218.217 429.775 234.683 434.161 251.44 434.161C268.197 434.161 284.663 429.775 299.2 421.44L380.48 374.56C392 367.84 399.2 355.52 399.2 342.08V282L282.944 349.552ZM468.8 363.312V241.552L439.984 258.288V363.296C435.454 366.374 432.029 370.824 430.213 375.991C428.397 381.159 428.285 386.772 429.894 392.008C431.503 397.244 434.748 401.826 439.152 405.082C443.557 408.338 448.889 410.097 454.366 410.1C459.843 410.103 465.177 408.35 469.585 405.099C473.993 401.848 477.243 397.269 478.858 392.035C480.473 386.801 480.367 381.188 478.557 376.018C476.747 370.849 473.327 366.395 468.8 363.312Z" fill="#363F3E"/>
</svg>
